<?xml version="1.0" encoding="iso-8859-1"?>
<!-- Generator: Adobe Illustrator 22.1.0, SVG Export Plug-In . SVG Version: 6.00 Build 0)  -->
<svg version="1.1" id="Layer_1" xmlns="http://www.w3.org/2000/svg" xmlns:xlink="http://www.w3.org/1999/xlink" x="0px" y="0px"
	 width="144px" height="144px" viewBox="0 0 144 144" enable-background="new 0 0 144 144" xml:space="preserve">
<circle fill="#FFFFFF" cx="70.944" cy="72" r="54.472"/>
<g>
	<path d="M27.799,88.797V88.03l3.024-0.384V56.355l-3.024-0.384v-0.768h13.486v0.768l-3.024,0.384v31.291h10.414l4.223-8.543h0.768
		v9.694H27.799z"/>
	<path d="M67.009,73.776v13.87l3.12,0.384v0.768H56.547V88.03l3.024-0.384V56.355l-3.024-0.384v-0.768H72.96
		c1.375,0,2.679,0.168,3.911,0.504c1.231,0.336,2.319,0.856,3.263,1.56c0.943,0.704,1.695,1.592,2.255,2.664
		c0.559,1.072,0.84,2.344,0.84,3.815c0,1.6-0.328,2.944-0.984,4.031c-0.656,1.088-1.552,2.016-2.688,2.784
		c-1.136,0.768-2.456,1.4-3.959,1.896c-1.504,0.496-3.12,0.936-4.847,1.32H67.009z M67.009,72.864h2.496
		c0.864,0,1.656-0.208,2.376-0.624c0.72-0.416,1.336-1.008,1.848-1.776c0.512-0.768,0.912-1.687,1.2-2.76
		c0.288-1.071,0.432-2.247,0.432-3.527c0-1.152-0.104-2.223-0.312-3.215c-0.208-0.991-0.528-1.855-0.96-2.592
		c-0.432-0.736-0.984-1.32-1.656-1.752c-0.672-0.432-1.456-0.648-2.352-0.648l-3.072,0.384V72.864z"/>
	<path d="M108.426,88.797H92.781V88.03l4.127-0.384V56.114h-4.799l-4.175,8.975h-0.768v-9.886h26.923v9.886h-0.816l-4.128-8.975
		h-4.799v31.531l4.079,0.384V88.797z"/>
</g>
<g>
</g>
<g>
</g>
<g>
</g>
<g>
</g>
<g>
</g>
<g>
</g>
</svg>
